<svg width="26" height="25" fill="none" xmlns="http://www.w3.org/2000/svg"><path d="M13.25 13.239c3.096 0 5.605-2.938 5.605-6.561 0-5.025-2.51-6.56-5.605-6.56-3.096 0-5.605 1.535-5.605 6.56 0 3.623 2.51 6.56 5.605 6.56zM25.628 22.895l-2.828-6.37a1.42 1.42 0 00-.64-.68l-4.388-2.285a.283.283 0 00-.301.025 6.954 6.954 0 01-4.22 1.435c-1.52 0-2.98-.496-4.222-1.435a.283.283 0 00-.3-.025l-4.39 2.284c-.282.148-.51.39-.639.68L.872 22.896c-.195.44-.155.942.107 1.345s.705.643 1.186.643h22.17c.48 0 .924-.24 1.186-.643.262-.403.302-.906.107-1.345z" fill="#4BA9FF"/></svg>